HIERARCHY
ROOT Hips
{
    OFFSET 0.000000 0.000000 0.000000
    CHANNELS 6 Xposition Yposition Zposition Zrotation Xrotation Yrotation
        JOINT Chest
        {
            OFFSET -0.000000 31.986500 -0.000000
            CHANNELS 3 Zrotation Xrotation Yrotation
            JOINT Neck
            {
                OFFSET -0.000000 24.131615 0.000000
                CHANNELS 3 Zrotation Xrotation Yrotation
                JOINT Head
                {
                    OFFSET -0.000000 10.450000 0.000000
                    CHANNELS 3 Zrotation Xrotation Yrotation
                    End Site
                    {
                        OFFSET -0.000000 16.150003 0.000000
                    }
                }
            }
            JOINT LeftCollar
            {
                OFFSET -0.000000 24.131615 0.000000
                CHANNELS 3 Zrotation Xrotation Yrotation
                JOINT LeftShoulder
                {
                    OFFSET 20.000000 -0.000000 0.000000
                    CHANNELS 3 Zrotation Xrotation Yrotation
                    JOINT LeftElbow
                    {
                        OFFSET 22.686384 0.000000 0.000000
                        CHANNELS 3 Zrotation Xrotation Yrotation
                        JOINT LeftWrist
                        {
                            OFFSET 24.813133 0.000000 0.000000
                            CHANNELS 3 Zrotation Xrotation Yrotation
                            End Site
                            {
                                OFFSET 0.000000 -14.250000 0.000000
                            }
                        }
                    }
                }
            }
            JOINT RightCollar
            {
                OFFSET -0.000000 24.131615 0.000000
                CHANNELS 3 Zrotation Xrotation Yrotation
                JOINT RightShoulder
                {
                    OFFSET -20.000000 0.000000 0.000000
                    CHANNELS 3 Zrotation Xrotation Yrotation
                    JOINT RightElbow
                    {
                        OFFSET -22.686384 0.000000 0.000000
                        CHANNELS 3 Zrotation Xrotation Yrotation
                        JOINT RightWrist
                        {
                            OFFSET -24.813133 0.000000 0.000000
                            CHANNELS 3 Zrotation Xrotation Yrotation
                            End Site
                            {
                                OFFSET -0.000000 -14.250000 0.000000
                            }
                        }
                    }
                }
            }
        }
    JOINT LeftHip
    {
        OFFSET 11.400001 0.000000 0.000000
        CHANNELS 3 Zrotation Xrotation Yrotation
        JOINT LeftKnee
        {
            OFFSET -0.000000 -38.315727 0.000000
            CHANNELS 3 Zrotation Xrotation Yrotation
            JOINT LeftAnkle
            {
                OFFSET -0.000000 -38.060658 0.000000
                CHANNELS 3 Zrotation Xrotation Yrotation
                End Site
                {
                    OFFSET -0.000000 -4.750000 16.150003
                }
            }
        }
    }
    JOINT RightHip
    {
        OFFSET -11.400001 0.000000 0.000000
        CHANNELS 3 Zrotation Xrotation Yrotation
        JOINT RightKnee
        {
            OFFSET -0.000000 -38.315727 0.000000
            CHANNELS 3 Zrotation Xrotation Yrotation
            JOINT RightAnkle
            {
                OFFSET -0.000000 -38.060658 0.000000
                CHANNELS 3 Zrotation Xrotation Yrotation
                End Site
                {
                    OFFSET -0.000000 -4.750000 16.150003
                }
            }
        }
    }
}
MOTION
Frames:    5
Frame Time:    0.010000
61.515011    82.184242    -23.979919    -3.111691    -5.023630    -15.925102    1.952478    17.058020    24.721579    1.983401    7.928712    -18.718796    6.314518    -18.279665    -17.562353    -20.438246    -1.174454    6.748064    -57.065369    33.870392    2.431817    -3.369742    4.623646    -102.530334    92.877815    8.196066    -31.438730    20.233654    2.037457    10.719438    -22.264378    29.453213    91.654251    -25.637903    -19.082588    74.670288    -48.112431    -6.510574    -0.827377    11.720952    -15.454091    -6.099424    -3.545445    36.953850    -13.152490    -7.826618    -10.707482    26.052933    -2.006449    1.993204    -11.317575    1.452073    40.264721    -23.526554    18.400843    -20.192648    -4.378397    
61.602985    82.404480    -23.684347    -3.325167    -4.917203    -15.712460    2.027544    17.148851    24.494766    1.267906    8.163823    -18.546432    7.408580    -18.750576    -17.228813    -20.315022    -1.233985    7.169082    -57.736862    33.231476    3.422753    -3.677018    4.836477    -101.452888    93.092773    8.012455    -32.616318    21.195059    2.079944    10.383291    -22.208206    32.076115    89.771812    -24.892609    -18.823408    75.523315    -49.445587    -5.907751    -0.256563    11.959934    -15.345098    -5.589249    -3.413617    36.814358    -13.590747    -7.903808    -10.429404    25.767134    -2.153795    1.868704    -11.261495    1.424654    40.695835    -23.149628    18.701485    -18.952175    -4.010835    
61.687195    82.633301    -23.394171    -3.561059    -4.791203    -15.470965    2.162771    17.202847    24.174076    0.469627    8.302889    -18.371357    8.492944    -18.965719    -16.913931    -20.175501    -1.290511    7.629025    -58.288437    32.642326    4.302393    -3.946288    5.026442    -100.341400    93.208229    7.714295    -33.415051    22.143440    2.096717    9.934370    -22.294868    34.596447    87.907005    -24.247379    -18.654800    76.360542    -50.961967    -5.259259    0.375651    12.183316    -15.222582    -5.112005    -3.208951    36.613159    -14.061124    -7.971192    -10.162937    25.507669    -2.293808    1.755689    -11.238102    1.382044    41.071411    -22.680754    18.788309    -17.657442    -3.621403    
61.766941    82.864632    -23.111090    -3.816047    -4.656716    -15.193615    2.348894    17.233089    23.762259    -0.386279    8.348331    -18.210247    9.533504    -18.954782    -16.641983    -20.017328    -1.357969    8.105551    -58.746967    32.088120    5.093347    -4.195601    5.203739    -99.204628    93.239136    7.324733    -33.908539    23.070606    2.080483    9.364861    -22.553787    36.998920    86.117599    -23.709229    -18.563679    77.160706    -52.672424    -4.596404    1.058467    12.379617    -15.087747    -4.709571    -2.947223    36.361927    -14.547528    -8.012115    -9.911646    25.293610    -2.424213    1.665997    -11.228607    1.331812    41.389175    -22.136894    18.606575    -16.347624    -3.201753    
61.842491    83.093491    -22.838331    -4.081803    -4.520656    -14.878235    2.568764    17.244373    23.269922    -1.265768    8.316147    -18.078720    10.495592    -18.766933    -16.431416    -19.844631    -1.419814    8.571662    -59.124252    31.524973    5.811787    -4.468832    5.445227    -98.034843    93.281906    6.896790    -34.139687    23.963915    2.029053    8.676832    -22.977226    39.276073    84.435860    -23.265072    -18.523491    77.915970    -54.575188    -3.933450    1.782513    12.538035    -14.947268    -4.418859    -2.650352    36.073620    -15.023639    -8.016321    -9.677011    25.138502    -2.546098    1.601220    -11.212338    1.278721    41.653988    -21.522026    18.144449    -15.079095    -2.747842    
